<svg xmlns="http://www.w3.org/2000/svg" width="100" height="86.645" viewBox="0 0 100 86.645">
  <path id="logo_vernity_SVG_01-01" d="M99.982,2.361,79.074,14.421a3.322,3.322,0,0,0-1.635,2.449h0a4.452,4.452,0,0,1-3.6,3.868A4.36,4.36,0,1,1,74.7,12.4a3.606,3.606,0,0,0,3.147-.2L98.884,0H54.275A4.355,4.355,0,0,1,52.23,3.675a1.865,1.865,0,0,0-.919,1.567v13.4a2.991,2.991,0,0,0,.946,2.168,3.469,3.469,0,0,0,1.167.836,8.751,8.751,0,1,1-9.234,14.618l-.184-.165-.1-.092a8.908,8.908,0,0,1-.96-1.093h0a8.729,8.729,0,0,1,3.634-13.323,3.413,3.413,0,0,0,1.447-1.158,2.977,2.977,0,0,0,.666-1.879V5.329a1.865,1.865,0,0,0-.919-1.59A4.36,4.36,0,0,1,45.652,0H1.1L22.171,12.2a3.616,3.616,0,0,0,3.152.2,4.362,4.362,0,1,1-2.738,4.525h0a3.4,3.4,0,0,0-1.672-2.508L0,2.338,22.125,40.8a4.36,4.36,0,0,1,4.254-.119,1.888,1.888,0,0,0,1.838,0l10.3-5.825a1.121,1.121,0,0,1,1.53.459h0a1.121,1.121,0,0,1-.386,1.53L33,40.773,29.54,42.785a1.975,1.975,0,0,0-.988,1.709h0a4.355,4.355,0,0,1-1.976,3.648l.083.142-.083.051L48.8,86.627l.032-24.588a2.982,2.982,0,0,0-1.217-2.449,4.415,4.415,0,0,1-1.686-2.416A4.282,4.282,0,0,1,47.007,53a4.066,4.066,0,0,1,5.366-.524,4.355,4.355,0,0,1,.032,7.135,2.972,2.972,0,0,0-1.213,2.444l.032,24.588L73.446,48.353l-.083-.051.083-.142a4.355,4.355,0,0,1-1.975-3.648h0a1.966,1.966,0,0,0-.983-1.709l-3.473-2L60.27,36.822a1.121,1.121,0,0,1-.391-1.53h0a1.121,1.121,0,0,1,1.53-.459l10.415,5.88a1.879,1.879,0,0,0,1.81,0,4.36,4.36,0,0,1,4.25.11h0L100,2.38Z" fill="#221b3b"/>
</svg>
