<svg xmlns="http://www.w3.org/2000/svg" width="15.724" height="15.715" viewBox="0 0 15.724 15.715">
  <g id="Group_7372" data-name="Group 7372" transform="translate(0 0.715)">
    <g id="Path_4589" data-name="Path 4589" transform="translate(0 -0.715)" fill="none">
      <path d="M7.862,0A7.857,7.857,0,1,1,0,7.857,7.86,7.86,0,0,1,7.862,0Z" stroke="none"/>
      <path d="M 7.862182140350342 1.999997138977051 C 4.629761695861816 1.999997138977051 2.000001907348633 4.627607345581055 2.000001907348633 7.857387542724609 C 2.000001907348633 11.08716773986816 4.629761695861816 13.71477794647217 7.862182140350342 13.71477794647217 C 11.09460258483887 13.71477794647217 13.72436237335205 11.08716773986816 13.72436237335205 7.857387542724609 C 13.72436237335205 4.627607345581055 11.09460258483887 1.999997138977051 7.862182140350342 1.999997138977051 M 7.862182140350342 -2.86102294921875e-06 C 12.20434188842773 -2.86102294921875e-06 15.72436237335205 3.517877578735352 15.72436237335205 7.857387542724609 C 15.72436237335205 12.19689750671387 12.20434188842773 15.71477794647217 7.862182140350342 15.71477794647217 C 3.520022392272949 15.71477794647217 1.9073486328125e-06 12.19689750671387 1.9073486328125e-06 7.857387542724609 C 1.9073486328125e-06 3.517877578735352 3.520022392272949 -2.86102294921875e-06 7.862182140350342 -2.86102294921875e-06 Z" stroke="none" fill="#fff"/>
    </g>
    <g id="Group_7371" data-name="Group 7371" transform="translate(3 2)">
      <rect id="Rectangle_1022" data-name="Rectangle 1022" width="2" height="12" transform="translate(4 -1)" fill="#fff"/>
      <rect id="Rectangle_1023" data-name="Rectangle 1023" width="12" height="2" transform="translate(-1 4)" fill="#fff"/>
    </g>
  </g>
</svg>
