<?xml version="1.0"?>
<svg xmlns="http://www.w3.org/2000/svg" height="512px" viewBox="-41 -105 1331.2499 1331" width="512px"><path d="m332.589844 733.378906c109.546875 0 198.667968-89.121094 198.667968-198.664062 0-13.460938-10.910156-24.375-24.382812-24.375h-149.90625v-149.910156c0-13.460938-10.90625-24.386719-24.378906-24.386719-109.542969 0-198.664063 89.128906-198.664063 198.671875 0 109.542968 89.121094 198.664062 198.664063 198.664062zm-24.375-346.597656v147.933594c0 13.457031 10.921875 24.375 24.375 24.375h147.929687c-11.664062 71.109375-73.570312 125.539062-147.929687 125.539062-82.65625 0-149.914063-67.25-149.914063-149.914062 0-74.363282 54.425781-136.253906 125.539063-147.933594zm0 0" fill="#6c9395"/><path d="m430.09375 461.582031h174.289062c13.464844 0 24.375-10.914062 24.375-24.375 0-109.535156-89.117187-198.664062-198.664062-198.664062-13.453125 0-24.375 10.910156-24.375 24.375v174.289062c0 13.460938 10.921875 24.375 24.375 24.375zm24.375-172.304687c63.183594 10.375 113.1875 60.386718 123.566406 123.554687h-123.566406zm0 0" fill="#6c9395"/><path d="m701.894531 509.925781h382.691407c13.457031 0 24.375-10.914062 24.375-24.375 0-13.472656-10.917969-24.375-24.375-24.375h-382.691407c-13.457031 0-24.378906 10.902344-24.378906 24.375 0 13.460938 10.914063 24.375 24.378906 24.375zm0 0" fill="#6c9395"/><path d="m701.894531 406.335938h382.691407c13.457031 0 24.375-10.90625 24.375-24.375 0-13.464844-10.917969-24.375-24.375-24.375h-382.691407c-13.464843 0-24.378906 10.910156-24.378906 24.375 0 13.46875 10.914063 24.375 24.378906 24.375zm0 0" fill="#6c9395"/><path d="m701.894531 621.648438h382.691407c13.457031 0 24.375-10.902344 24.375-24.375 0-13.460938-10.917969-24.375-24.375-24.375h-382.691407c-13.457031 0-24.378906 10.914062-24.378906 24.375 0 13.472656 10.914063 24.375 24.378906 24.375zm0 0" fill="#6c9395"/><path d="m701.894531 733.378906h191.34375c13.46875 0 24.375-10.917968 24.375-24.375 0-13.472656-10.90625-24.375-24.375-24.375h-191.34375c-13.464843 0-24.378906 10.902344-24.378906 24.375 0 13.457032 10.914063 24.375 24.378906 24.375zm0 0" fill="#6c9395"/><path d="m984.558594 802.851562c0 13.445313 10.910156 24.375 24.382812 24.375h100.019532c13.457031 0 24.375-10.929687 24.375-24.375 0-13.472656-10.917969-24.375-24.375-24.375h-100.019532c-13.472656 0-24.382812 10.902344-24.382812 24.375zm0 0" fill="#6c9395"/><path d="m938.902344 778.476562h-.570313c-13.46875 0-24.375 10.902344-24.375 24.375 0 13.457032 10.90625 24.375 24.375 24.375h.570313c13.453125 0 24.375-10.917968 24.375-24.375 0-13.472656-10.914063-24.375-24.375-24.375zm0 0" fill="#6c9395"/><path d="m701.894531 308.832031h191.34375c13.46875 0 24.375-10.914062 24.375-24.375 0-13.460937-10.90625-24.378906-24.375-24.378906h-191.34375c-13.464843 0-24.378906 10.917969-24.378906 24.378906 0 13.460938 10.914063 24.375 24.378906 24.375zm0 0" fill="#6c9395"/><path d="m157.730469 42.324219h.65625c13.460937 0 24.375-10.917969 24.375-24.386719 0-13.460938-10.914063-24.375-24.375-24.375h-.65625c-13.460938 0-24.375 10.914062-24.375 24.375 0 13.46875 10.914062 24.386719 24.375 24.386719zm0 0" fill="#6c9395"/><path d="m1245.464844 56.941406c0-34.945312-28.425782-63.378906-63.375-63.378906h-926.28125c-13.472656 0-24.375 10.914062-24.375 24.375 0 13.46875 10.902344 24.386719 24.375 24.386719h926.28125c7.929687 0 14.625 6.683593 14.625 14.617187 0 7.925782-6.695313 14.628906-14.625 14.628906h-1121.292969c-7.929687 0-14.625-6.699218-14.625-14.628906 0-7.933594 6.695313-14.617187 14.625-14.617187h26.890625c13.464844 0 24.378906-10.917969 24.378906-24.386719 0-13.460938-10.914062-24.375-24.378906-24.375h-26.890625c-34.945313 0-63.378906 28.433594-63.378906 63.378906 0 26.304688 16.125 48.921875 39.003906 58.488282v721.542968c0 34.941406 28.417969 63.378906 63.378906 63.378906h497.265625v72.441407c-28.367187 10.066406-48.75 37.15625-48.75 68.933593 0 40.324219 32.796875 73.136719 73.125 73.136719s73.128906-32.8125 73.128906-73.136719c0-31.777343-20.382812-58.867187-48.75-68.933593v-72.441407h497.273438c34.945312 0 63.371094-28.429687 63.371094-63.378906v-721.542968c22.882812-9.566407 39-32.164063 39-58.488282zm-624.023438 1009.160156c-13.441406 0-24.375-10.941406-24.375-24.375 0-13.441406 10.933594-24.375 24.375-24.375 13.4375 0 24.378906 10.933594 24.378906 24.375 0 13.433594-10.941406 24.375-24.378906 24.375zm536.269532-229.128906c0 7.929688-6.6875 14.628906-14.617188 14.628906h-1043.292969c-7.929687 0-14.628906-6.699218-14.628906-14.628906v-716.652344h1072.539063zm0 0" fill="#6c9395"/></svg>
