<svg xmlns="http://www.w3.org/2000/svg" viewBox="0 0 20 20">
  <defs>
    <style>
      .cls-1 {
        fill: rgba(255,255,255,0);
      }

      .cls-2 {
        fill: #cecbd9;
      }
    </style>
  </defs>
  <g id="Group_7382" data-name="Group 7382" transform="translate(0 -1)">
    <rect id="Rectangle_313" data-name="Rectangle 313" class="cls-1" width="20" height="20" transform="translate(0 1)"/>
    <g id="settings" transform="translate(1 2)">
      <g id="Group_653" data-name="Group 653">
        <path id="Path_4549" data-name="Path 4549" class="cls-2" d="M17.079,7.111,15.815,6.9a7.134,7.134,0,0,0-.508-1.226l.745-1.042a1.109,1.109,0,0,0-.12-1.433L14.811,2.077a1.1,1.1,0,0,0-.786-.327,1.093,1.093,0,0,0-.643.207L12.337,2.7a7.06,7.06,0,0,0-1.271-.523L10.856.93A1.111,1.111,0,0,0,9.758,0H8.175a1.111,1.111,0,0,0-1.1.929L6.859,2.208a6.958,6.958,0,0,0-1.222.515L4.6,1.979A1.111,1.111,0,0,0,3.17,2.1L2.046,3.22a1.113,1.113,0,0,0-.12,1.433l.752,1.057a6.968,6.968,0,0,0-.5,1.23L.929,7.149A1.111,1.111,0,0,0,0,8.247V9.83a1.111,1.111,0,0,0,.929,1.1l1.278.218a6.958,6.958,0,0,0,.515,1.222L1.982,13.4a1.109,1.109,0,0,0,.12,1.433l1.121,1.121a1.1,1.1,0,0,0,.786.327,1.093,1.093,0,0,0,.643-.207l1.057-.752a7.113,7.113,0,0,0,1.188.489l.211,1.263A1.111,1.111,0,0,0,8.2,18H9.791a1.111,1.111,0,0,0,1.1-.929l.214-1.263A7.134,7.134,0,0,0,12.33,15.3l1.042.745a1.1,1.1,0,0,0,.647.207h0a1.1,1.1,0,0,0,.786-.327L15.924,14.8a1.113,1.113,0,0,0,.12-1.433L15.3,12.327a7.083,7.083,0,0,0,.508-1.226l1.263-.211A1.111,1.111,0,0,0,18,9.792V8.209A1.1,1.1,0,0,0,17.079,7.111Zm-.086,2.681a.1.1,0,0,1-.083.1l-1.579.263a.5.5,0,0,0-.406.372A6.019,6.019,0,0,1,14.27,12.1a.508.508,0,0,0,.023.553l.929,1.309a.1.1,0,0,1-.011.128l-1.121,1.121a.1.1,0,0,1-.071.03.092.092,0,0,1-.056-.019l-1.3-.929a.508.508,0,0,0-.553-.023,6.019,6.019,0,0,1-1.576.654.5.5,0,0,0-.372.406L9.889,16.91a.1.1,0,0,1-.1.083H8.208a.1.1,0,0,1-.1-.083l-.263-1.579a.5.5,0,0,0-.372-.406,6.25,6.25,0,0,1-1.542-.632.52.52,0,0,0-.256-.068.5.5,0,0,0-.293.094l-1.316.936a.112.112,0,0,1-.056.019.1.1,0,0,1-.071-.03L2.82,14.124A.1.1,0,0,1,2.809,14l.925-1.3a.515.515,0,0,0,.023-.557,5.963,5.963,0,0,1-.662-1.572.515.515,0,0,0-.406-.372L1.1,9.928a.1.1,0,0,1-.083-.1V8.247a.1.1,0,0,1,.083-.1l1.568-.263a.508.508,0,0,0,.41-.376,6.013,6.013,0,0,1,.643-1.579.5.5,0,0,0-.026-.549L2.756,4.066a.1.1,0,0,1,.011-.128L3.888,2.817a.1.1,0,0,1,.071-.03.092.092,0,0,1,.056.019l1.3.925a.515.515,0,0,0,.557.023,5.963,5.963,0,0,1,1.572-.662.515.515,0,0,0,.372-.406L8.084,1.1a.1.1,0,0,1,.1-.083H9.765a.1.1,0,0,1,.1.083l.263,1.568a.508.508,0,0,0,.376.41,6.1,6.1,0,0,1,1.613.662.508.508,0,0,0,.553-.023l1.3-.933a.112.112,0,0,1,.056-.019.1.1,0,0,1,.071.03l1.121,1.121a.1.1,0,0,1,.011.128l-.929,1.3a.508.508,0,0,0-.023.553,6.02,6.02,0,0,1,.654,1.576.5.5,0,0,0,.406.372l1.579.267a.1.1,0,0,1,.083.1V9.792Z" transform="translate(0 -0.001)"/>
        <path id="Path_4550" data-name="Path 4550" class="cls-2" d="M139.984,136a3.884,3.884,0,1,0,3.884,3.884A3.887,3.887,0,0,0,139.984,136Zm0,6.753a2.869,2.869,0,1,1,2.869-2.869A2.871,2.871,0,0,1,139.984,142.754Z" transform="translate(-130.982 -130.887)"/>
      </g>
    </g>
  </g>
</svg>
